# MagicaVoxel @ Ephtracy

# material
mtllib BulletFire.mtl
usemtl palette

# normals
vn -1 0 0
vn 1 0 0
vn 0 0 1
vn 0 0 -1
vn 0 -1 0
vn 0 1 0

# texcoords
vt 0.0917969 0.5
vt 0.138672 0.5
vt 0.845703 0.5
vt 0.849609 0.5

# verts
v -2.5 2 -0
v -2.5 2 -1
v -2.5 3 -0
v -2.5 3 -1
v -1.5 1 -0
v -1.5 1 -1
v -1.5 2 1
v -1.5 2 -0
v -1.5 2 -1
v -1.5 3 1
v -1.5 3 -0
v -1.5 3 -1
v -1.5 4 -0
v -1.5 4 -1
v -0.5 0 -0
v -0.5 0 -1
v -0.5 1 1
v -0.5 1 -0
v -0.5 1 -1
v -0.5 2 1
v -0.5 2 -0
v -0.5 3 1
v -0.5 3 -0
v -0.5 4 1
v -0.5 4 -0
v -0.5 4 -1
v -0.5 5 -0
v -0.5 5 -1
v 0.5 1 -0
v 0.5 1 -1
v 0.5 2 -0
v 0.5 2 -1
v 0.5 3 -0
v 0.5 3 -1
v 0.5 4 -0
v 0.5 4 -1
v 1.5 2 -0
v 1.5 2 -1
v 1.5 3 -0
v 1.5 3 -1
v -1.5 2 -0
v -1.5 2 -1
v -1.5 3 -0
v -1.5 3 -1
v -0.5 1 -0
v -0.5 1 -1
v -0.5 2 -0
v -0.5 2 -1
v -0.5 3 -0
v -0.5 3 -1
v -0.5 4 -0
v -0.5 4 -1
v 0.5 0 -0
v 0.5 0 -1
v 0.5 1 1
v 0.5 1 -0
v 0.5 1 -1
v 0.5 2 1
v 0.5 2 -0
v 0.5 3 1
v 0.5 3 -0
v 0.5 4 1
v 0.5 4 -0
v 0.5 4 -1
v 0.5 5 -0
v 0.5 5 -1
v 1.5 1 -0
v 1.5 1 -1
v 1.5 2 1
v 1.5 2 -0
v 1.5 2 -1
v 1.5 3 1
v 1.5 3 -0
v 1.5 3 -1
v 1.5 4 -0
v 1.5 4 -1
v 2.5 2 -0
v 2.5 2 -1
v 2.5 3 -0
v 2.5 3 -1
v -1.5 2 1
v -1.5 3 1
v -0.5 1 1
v -0.5 2 1
v -0.5 3 1
v -0.5 4 1
v 0.5 1 1
v 0.5 2 1
v 0.5 3 1
v 0.5 4 1
v 1.5 2 1
v 1.5 3 1
v -2.5 2 -0
v -2.5 3 -0
v -1.5 1 -0
v -1.5 2 -0
v -1.5 3 -0
v -1.5 4 -0
v -0.5 0 -0
v -0.5 1 -0
v -0.5 2 -0
v -0.5 3 -0
v -0.5 4 -0
v -0.5 5 -0
v 0.5 0 -0
v 0.5 1 -0
v 0.5 2 -0
v 0.5 3 -0
v 0.5 4 -0
v 0.5 5 -0
v 1.5 1 -0
v 1.5 2 -0
v 1.5 3 -0
v 1.5 4 -0
v 2.5 2 -0
v 2.5 3 -0
v -1.5 2 -0
v -1.5 3 -0
v -0.5 1 -0
v -0.5 2 -0
v -0.5 3 -0
v -0.5 4 -0
v 0.5 1 -0
v 0.5 2 -0
v 0.5 3 -0
v 0.5 4 -0
v 1.5 2 -0
v 1.5 3 -0
v -2.5 2 -1
v -2.5 3 -1
v -1.5 1 -1
v -1.5 2 -1
v -1.5 3 -1
v -1.5 4 -1
v -0.5 0 -1
v -0.5 1 -1
v -0.5 2 -1
v -0.5 3 -1
v -0.5 4 -1
v -0.5 5 -1
v 0.5 0 -1
v 0.5 1 -1
v 0.5 2 -1
v 0.5 3 -1
v 0.5 4 -1
v 0.5 5 -1
v 1.5 1 -1
v 1.5 2 -1
v 1.5 3 -1
v 1.5 4 -1
v 2.5 2 -1
v 2.5 3 -1
v -0.5 0 -0
v 0.5 0 -0
v -0.5 0 -1
v 0.5 0 -1
v -0.5 1 1
v 0.5 1 1
v -1.5 1 -0
v -0.5 1 -0
v 0.5 1 -0
v 1.5 1 -0
v -1.5 1 -1
v -0.5 1 -1
v 0.5 1 -1
v 1.5 1 -1
v -1.5 2 1
v -0.5 2 1
v 0.5 2 1
v 1.5 2 1
v -2.5 2 -0
v -1.5 2 -0
v -0.5 2 -0
v 0.5 2 -0
v 1.5 2 -0
v 2.5 2 -0
v -2.5 2 -1
v -1.5 2 -1
v 1.5 2 -1
v 2.5 2 -1
v -1.5 3 -0
v -0.5 3 -0
v 0.5 3 -0
v 1.5 3 -0
v -1.5 3 -1
v -0.5 3 -1
v 0.5 3 -1
v 1.5 3 -1
v -0.5 4 -0
v 0.5 4 -0
v -0.5 4 -1
v 0.5 4 -1
v -0.5 1 -0
v 0.5 1 -0
v -0.5 1 -1
v 0.5 1 -1
v -1.5 2 -0
v -0.5 2 -0
v 0.5 2 -0
v 1.5 2 -0
v -1.5 2 -1
v -0.5 2 -1
v 0.5 2 -1
v 1.5 2 -1
v -1.5 3 1
v -0.5 3 1
v 0.5 3 1
v 1.5 3 1
v -2.5 3 -0
v -1.5 3 -0
v -0.5 3 -0
v 0.5 3 -0
v 1.5 3 -0
v 2.5 3 -0
v -2.5 3 -1
v -1.5 3 -1
v 1.5 3 -1
v 2.5 3 -1
v -0.5 4 1
v 0.5 4 1
v -1.5 4 -0
v -0.5 4 -0
v 0.5 4 -0
v 1.5 4 -0
v -1.5 4 -1
v -0.5 4 -1
v 0.5 4 -1
v 1.5 4 -1
v -0.5 5 -0
v 0.5 5 -0
v -0.5 5 -1
v 0.5 5 -1

# faces
f 3/2/1 2/2/1 1/2/1
f 4/2/1 2/2/1 3/2/1
f 8/1/1 6/1/1 5/1/1
f 9/1/1 6/1/1 8/1/1
f 10/3/1 8/3/1 7/3/1
f 11/3/1 8/3/1 10/3/1
f 13/1/1 12/1/1 11/1/1
f 14/1/1 12/1/1 13/1/1
f 18/2/1 16/2/1 15/2/1
f 19/2/1 16/2/1 18/2/1
f 20/3/1 18/3/1 17/3/1
f 21/3/1 18/3/1 20/3/1
f 24/3/1 23/3/1 22/3/1
f 25/3/1 23/3/1 24/3/1
f 27/2/1 26/2/1 25/2/1
f 28/2/1 26/2/1 27/2/1
f 31/1/1 30/1/1 29/1/1
f 32/1/1 30/1/1 31/1/1
f 35/1/1 34/1/1 33/1/1
f 36/1/1 34/1/1 35/1/1
f 39/2/1 38/2/1 37/2/1
f 40/2/1 38/2/1 39/2/1
f 41/2/2 42/2/2 43/2/2
f 43/2/2 42/2/2 44/2/2
f 45/1/2 46/1/2 47/1/2
f 47/1/2 46/1/2 48/1/2
f 49/1/2 50/1/2 51/1/2
f 51/1/2 50/1/2 52/1/2
f 53/2/2 54/2/2 56/2/2
f 56/2/2 54/2/2 57/2/2
f 55/3/2 56/3/2 58/3/2
f 58/3/2 56/3/2 59/3/2
f 60/3/2 61/3/2 62/3/2
f 62/3/2 61/3/2 63/3/2
f 63/2/2 64/2/2 65/2/2
f 65/2/2 64/2/2 66/2/2
f 67/1/2 68/1/2 70/1/2
f 70/1/2 68/1/2 71/1/2
f 69/3/2 70/3/2 72/3/2
f 72/3/2 70/3/2 73/3/2
f 73/1/2 74/1/2 75/1/2
f 75/1/2 74/1/2 76/1/2
f 77/2/2 78/2/2 79/2/2
f 79/2/2 78/2/2 80/2/2
f 84/3/3 82/3/3 81/3/3
f 85/3/3 82/3/3 84/3/3
f 87/3/3 84/3/3 83/3/3
f 88/4/3 85/4/3 84/4/3
f 88/3/3 84/3/3 87/3/3
f 89/3/3 86/3/3 85/3/3
f 89/4/3 85/4/3 88/4/3
f 90/3/3 86/3/3 89/3/3
f 91/3/3 89/3/3 88/3/3
f 92/3/3 89/3/3 91/3/3
f 96/2/3 94/2/3 93/2/3
f 97/2/3 94/2/3 96/2/3
f 100/1/3 96/1/3 95/1/3
f 101/1/3 96/1/3 100/1/3
f 102/1/3 98/1/3 97/1/3
f 103/1/3 98/1/3 102/1/3
f 105/2/3 100/2/3 99/2/3
f 106/2/3 100/2/3 105/2/3
f 109/2/3 104/2/3 103/2/3
f 110/2/3 104/2/3 109/2/3
f 111/1/3 107/1/3 106/1/3
f 112/1/3 107/1/3 111/1/3
f 113/1/3 109/1/3 108/1/3
f 114/1/3 109/1/3 113/1/3
f 115/2/3 113/2/3 112/2/3
f 116/2/3 113/2/3 115/2/3
f 117/3/4 118/3/4 120/3/4
f 120/3/4 118/3/4 121/3/4
f 119/3/4 120/3/4 123/3/4
f 120/4/4 121/4/4 124/4/4
f 123/3/4 120/3/4 124/3/4
f 121/3/4 122/3/4 125/3/4
f 124/4/4 121/4/4 125/4/4
f 125/3/4 122/3/4 126/3/4
f 124/3/4 125/3/4 127/3/4
f 127/3/4 125/3/4 128/3/4
f 129/2/4 130/2/4 132/2/4
f 132/2/4 130/2/4 133/2/4
f 131/1/4 132/1/4 136/1/4
f 136/1/4 132/1/4 137/1/4
f 133/1/4 134/1/4 138/1/4
f 138/1/4 134/1/4 139/1/4
f 135/2/4 136/2/4 141/2/4
f 141/2/4 136/2/4 142/2/4
f 139/2/4 140/2/4 145/2/4
f 145/2/4 140/2/4 146/2/4
f 142/1/4 143/1/4 147/1/4
f 147/1/4 143/1/4 148/1/4
f 144/1/4 145/1/4 149/1/4
f 149/1/4 145/1/4 150/1/4
f 148/2/4 149/2/4 151/2/4
f 151/2/4 149/2/4 152/2/4
f 155/2/5 154/2/5 153/2/5
f 156/2/5 154/2/5 155/2/5
f 160/3/5 158/3/5 157/3/5
f 161/3/5 158/3/5 160/3/5
f 163/1/5 160/1/5 159/1/5
f 164/1/5 160/1/5 163/1/5
f 165/1/5 162/1/5 161/1/5
f 166/1/5 162/1/5 165/1/5
f 172/3/5 168/3/5 167/3/5
f 173/3/5 168/3/5 172/3/5
f 174/3/5 170/3/5 169/3/5
f 175/3/5 170/3/5 174/3/5
f 177/2/5 172/2/5 171/2/5
f 178/2/5 172/2/5 177/2/5
f 179/2/5 176/2/5 175/2/5
f 180/2/5 176/2/5 179/2/5
f 185/1/5 182/1/5 181/1/5
f 186/1/5 182/1/5 185/1/5
f 187/1/5 184/1/5 183/1/5
f 188/1/5 184/1/5 187/1/5
f 191/2/5 190/2/5 189/2/5
f 192/2/5 190/2/5 191/2/5
f 193/2/6 194/2/6 195/2/6
f 195/2/6 194/2/6 196/2/6
f 197/1/6 198/1/6 201/1/6
f 201/1/6 198/1/6 202/1/6
f 199/1/6 200/1/6 203/1/6
f 203/1/6 200/1/6 204/1/6
f 205/3/6 206/3/6 210/3/6
f 210/3/6 206/3/6 211/3/6
f 207/3/6 208/3/6 212/3/6
f 212/3/6 208/3/6 213/3/6
f 209/2/6 210/2/6 215/2/6
f 215/2/6 210/2/6 216/2/6
f 213/2/6 214/2/6 217/2/6
f 217/2/6 214/2/6 218/2/6
f 219/3/6 220/3/6 222/3/6
f 222/3/6 220/3/6 223/3/6
f 221/1/6 222/1/6 225/1/6
f 225/1/6 222/1/6 226/1/6
f 223/1/6 224/1/6 227/1/6
f 227/1/6 224/1/6 228/1/6
f 229/2/6 230/2/6 231/2/6
f 231/2/6 230/2/6 232/2/6
