# MagicaVoxel @ Ephtracy

# material
mtllib TankBase.mtl
usemtl palette

# normals
vn -1 0 0
vn 1 0 0
vn 0 0 1
vn 0 0 -1
vn 0 -1 0
vn 0 1 0

# texcoords
vt 0.0449219 0.5
vt 0.904297 0.5
vt 0.990234 0.5
vt 0.994141 0.5

# verts
v -3.5 0 4
v -3.5 0 -4
v -3.5 1 5
v -3.5 1 4
v -3.5 1 -4
v -3.5 1 -5
v -3.5 2 5
v -3.5 2 4
v -3.5 2 -4
v -3.5 2 -5
v -3.5 3 4
v -3.5 3 -4
v -2.5 3 3
v -2.5 3 -3
v -2.5 4 3
v -2.5 4 -3
v 2.5 0 4
v 2.5 0 -4
v 2.5 1 5
v 2.5 1 4
v 2.5 1 -4
v 2.5 1 -5
v 2.5 2 5
v 2.5 2 4
v 2.5 2 -4
v 2.5 2 -5
v -2.5 0 4
v -2.5 0 -4
v -2.5 1 5
v -2.5 1 4
v -2.5 1 -4
v -2.5 1 -5
v -2.5 2 5
v -2.5 2 4
v -2.5 2 -4
v -2.5 2 -5
v 2.5 3 3
v 2.5 3 -3
v 2.5 4 3
v 2.5 4 -3
v 3.5 0 4
v 3.5 0 -4
v 3.5 1 5
v 3.5 1 4
v 3.5 1 -4
v 3.5 1 -5
v 3.5 2 5
v 3.5 2 4
v 3.5 2 -4
v 3.5 2 -5
v 3.5 3 4
v 3.5 3 -4
v -3.5 1 5
v -3.5 2 5
v -2.5 1 5
v -2.5 2 5
v 2.5 1 5
v 2.5 2 5
v 3.5 1 5
v 3.5 2 5
v -3.5 0 4
v -3.5 1 4
v -3.5 2 4
v -3.5 3 4
v -2.5 0 4
v -2.5 1 4
v -2.5 2 4
v -2.5 3 4
v -1.5 2 4
v -1.5 3 4
v 1.5 2 4
v 1.5 3 4
v 2.5 0 4
v 2.5 1 4
v 2.5 2 4
v 2.5 3 4
v 3.5 0 4
v 3.5 1 4
v 3.5 2 4
v 3.5 3 4
v -2.5 3 3
v -2.5 4 3
v -1.5 3 3
v 1.5 3 3
v 2.5 3 3
v 2.5 4 3
v -2.5 3 -3
v -2.5 4 -3
v 2.5 3 -3
v 2.5 4 -3
v -3.5 0 -4
v -3.5 1 -4
v -3.5 2 -4
v -3.5 3 -4
v -2.5 0 -4
v -2.5 1 -4
v -2.5 2 -4
v -2.5 3 -4
v 2.5 0 -4
v 2.5 1 -4
v 2.5 2 -4
v 2.5 3 -4
v 3.5 0 -4
v 3.5 1 -4
v 3.5 2 -4
v 3.5 3 -4
v -3.5 1 -5
v -3.5 2 -5
v -2.5 1 -5
v -2.5 2 -5
v 2.5 1 -5
v 2.5 2 -5
v 3.5 1 -5
v 3.5 2 -5
v -3.5 0 4
v -2.5 0 4
v 2.5 0 4
v 3.5 0 4
v -3.5 0 -4
v -2.5 0 -4
v 2.5 0 -4
v 3.5 0 -4
v -3.5 1 5
v -2.5 1 5
v 2.5 1 5
v 3.5 1 5
v -3.5 1 4
v -2.5 1 4
v 2.5 1 4
v 3.5 1 4
v -3.5 1 -4
v -2.5 1 -4
v 2.5 1 -4
v 3.5 1 -4
v -3.5 1 -5
v -2.5 1 -5
v 2.5 1 -5
v 3.5 1 -5
v -3.5 2 5
v -2.5 2 5
v 2.5 2 5
v 3.5 2 5
v -3.5 2 4
v -2.5 2 4
v 2.5 2 4
v 3.5 2 4
v -3.5 2 -4
v -2.5 2 -4
v 2.5 2 -4
v 3.5 2 -4
v -3.5 2 -5
v -2.5 2 -5
v 2.5 2 -5
v 3.5 2 -5
v -3.5 3 4
v -2.5 3 4
v -1.5 3 4
v 1.5 3 4
v 2.5 3 4
v 3.5 3 4
v -2.5 3 3
v -1.5 3 3
v 1.5 3 3
v 2.5 3 3
v -2.5 3 -3
v 2.5 3 -3
v -3.5 3 -4
v -2.5 3 -4
v 2.5 3 -4
v 3.5 3 -4
v -2.5 4 3
v 2.5 4 3
v -2.5 4 -3
v 2.5 4 -3

# faces
f 4/3/1 2/3/1 1/3/1
f 5/3/1 2/3/1 4/3/1
f 7/3/1 4/3/1 3/3/1
f 7/3/1 6/3/1 5/3/1
f 7/3/1 5/3/1 4/3/1
f 8/3/1 6/3/1 7/3/1
f 9/3/1 6/3/1 8/3/1
f 10/3/1 6/3/1 9/3/1
f 11/3/1 9/3/1 8/3/1
f 12/3/1 9/3/1 11/3/1
f 15/2/1 14/2/1 13/2/1
f 16/2/1 14/2/1 15/2/1
f 20/3/1 18/3/1 17/3/1
f 21/3/1 18/3/1 20/3/1
f 23/3/1 20/3/1 19/3/1
f 24/3/1 20/3/1 23/3/1
f 25/3/1 22/3/1 21/3/1
f 26/3/1 22/3/1 25/3/1
f 27/3/2 28/3/2 30/3/2
f 30/3/2 28/3/2 31/3/2
f 29/3/2 30/3/2 33/3/2
f 33/3/2 30/3/2 34/3/2
f 31/3/2 32/3/2 35/3/2
f 35/3/2 32/3/2 36/3/2
f 37/2/2 38/2/2 39/2/2
f 39/2/2 38/2/2 40/2/2
f 41/3/2 42/3/2 44/3/2
f 44/3/2 42/3/2 45/3/2
f 43/3/2 44/3/2 47/3/2
f 45/3/2 46/3/2 47/3/2
f 44/3/2 45/3/2 47/3/2
f 47/3/2 46/3/2 48/3/2
f 48/3/2 46/3/2 49/3/2
f 49/3/2 46/3/2 50/3/2
f 48/3/2 49/3/2 51/3/2
f 51/3/2 49/3/2 52/3/2
f 55/3/3 54/3/3 53/3/3
f 56/3/3 54/3/3 55/3/3
f 59/3/3 58/3/3 57/3/3
f 60/3/3 58/3/3 59/3/3
f 65/3/3 62/3/3 61/3/3
f 66/3/3 62/3/3 65/3/3
f 67/3/3 64/3/3 63/3/3
f 68/3/3 64/3/3 67/3/3
f 69/4/3 67/4/3 66/4/3
f 69/1/3 68/1/3 67/1/3
f 70/1/3 68/1/3 69/1/3
f 71/4/3 69/4/3 66/4/3
f 71/2/3 70/2/3 69/2/3
f 72/2/3 70/2/3 71/2/3
f 74/4/3 71/4/3 66/4/3
f 75/1/3 72/1/3 71/1/3
f 75/4/3 71/4/3 74/4/3
f 76/1/3 72/1/3 75/1/3
f 77/3/3 74/3/3 73/3/3
f 78/3/3 74/3/3 77/3/3
f 79/3/3 76/3/3 75/3/3
f 80/3/3 76/3/3 79/3/3
f 83/2/3 82/2/3 81/2/3
f 84/2/3 82/2/3 83/2/3
f 85/2/3 82/2/3 84/2/3
f 86/2/3 82/2/3 85/2/3
f 87/2/4 88/2/4 89/2/4
f 89/2/4 88/2/4 90/2/4
f 91/3/4 92/3/4 95/3/4
f 95/3/4 92/3/4 96/3/4
f 93/3/4 94/3/4 97/3/4
f 97/3/4 94/3/4 98/3/4
f 96/4/4 97/4/4 100/4/4
f 97/2/4 98/2/4 101/2/4
f 100/4/4 97/4/4 101/4/4
f 101/2/4 98/2/4 102/2/4
f 99/3/4 100/3/4 103/3/4
f 103/3/4 100/3/4 104/3/4
f 101/3/4 102/3/4 105/3/4
f 105/3/4 102/3/4 106/3/4
f 107/3/4 108/3/4 109/3/4
f 109/3/4 108/3/4 110/3/4
f 111/3/4 112/3/4 113/3/4
f 113/3/4 112/3/4 114/3/4
f 119/3/5 116/3/5 115/3/5
f 120/3/5 116/3/5 119/3/5
f 121/3/5 118/3/5 117/3/5
f 122/3/5 118/3/5 121/3/5
f 127/3/5 124/3/5 123/3/5
f 128/3/5 124/3/5 127/3/5
f 129/3/5 126/3/5 125/3/5
f 130/3/5 126/3/5 129/3/5
f 132/4/5 129/4/5 128/4/5
f 133/4/5 129/4/5 132/4/5
f 135/3/5 132/3/5 131/3/5
f 136/3/5 132/3/5 135/3/5
f 137/3/5 134/3/5 133/3/5
f 138/3/5 134/3/5 137/3/5
f 139/3/6 140/3/6 143/3/6
f 143/3/6 140/3/6 144/3/6
f 141/3/6 142/3/6 145/3/6
f 145/3/6 142/3/6 146/3/6
f 147/3/6 148/3/6 151/3/6
f 151/3/6 148/3/6 152/3/6
f 149/3/6 150/3/6 153/3/6
f 153/3/6 150/3/6 154/3/6
f 155/3/6 156/3/6 161/3/6
f 156/1/6 157/1/6 161/1/6
f 157/2/6 158/2/6 162/2/6
f 161/1/6 157/1/6 162/1/6
f 158/1/6 159/1/6 163/1/6
f 162/2/6 158/2/6 163/2/6
f 159/3/6 160/3/6 164/3/6
f 163/1/6 159/1/6 164/1/6
f 155/3/6 161/3/6 165/3/6
f 164/3/6 160/3/6 166/3/6
f 155/3/6 165/3/6 167/3/6
f 165/2/6 166/2/6 168/2/6
f 167/3/6 165/3/6 168/3/6
f 166/3/6 160/3/6 169/3/6
f 168/2/6 166/2/6 169/2/6
f 169/3/6 160/3/6 170/3/6
f 171/2/6 172/2/6 173/2/6
f 173/2/6 172/2/6 174/2/6
